<?xml version="1.0" standalone="no"?>
<!DOCTYPE svg PUBLIC "-//W3C//DTD SVG 20010904//EN"
 "http://www.w3.org/TR/2001/REC-SVG-20010904/DTD/svg10.dtd">
<svg version="1.0" xmlns="http://www.w3.org/2000/svg"
 width="1024.000000pt" height="1024.000000pt" viewBox="0 0 1024.000000 1024.000000"
 preserveAspectRatio="xMidYMid meet">
<metadata>
Created by potrace 1.14, written by Peter Selinger 2001-2017
</metadata>
<g transform="translate(0.000000,1024.000000) scale(0.100000,-0.100000)"
fill="#000000" stroke="none">
<path d="M8280 7933 c-15 -6 -59 -44 -180 -157 -36 -34 -97 -90 -135 -126 -39
-36 -106 -99 -150 -140 -83 -78 -794 -740 -1086 -1010 -91 -85 -282 -263 -424
-395 -142 -132 -326 -303 -409 -380 -84 -77 -227 -210 -319 -296 -125 -118
-175 -158 -200 -162 -17 -4 -131 -18 -252 -32 -121 -15 -512 -61 -868 -105
l-649 -78 -111 63 c-62 34 -137 76 -167 92 -30 17 -194 109 -365 204 -170 95
-348 194 -395 219 -47 26 -200 111 -340 190 -241 135 -470 262 -605 336 -63
35 -119 43 -148 22 -15 -12 -110 -174 -202 -343 -21 -38 -77 -140 -125 -225
-48 -85 -136 -243 -195 -350 -60 -107 -147 -265 -195 -350 -48 -85 -108 -193
-134 -240 -62 -110 -68 -147 -30 -188 16 -17 151 -98 299 -180 149 -82 410
-227 580 -322 171 -95 335 -186 365 -203 30 -16 105 -57 165 -92 61 -34 142
-79 180 -100 39 -21 120 -66 180 -100 61 -34 142 -79 180 -100 39 -21 99 -55
135 -75 36 -21 209 -117 385 -215 176 -97 374 -208 440 -245 66 -37 208 -116
315 -175 107 -59 226 -125 263 -146 38 -22 71 -39 73 -39 3 0 42 -21 87 -47
226 -129 585 -324 604 -329 41 -11 67 4 174 103 305 282 659 611 779 723 74
70 169 158 211 196 78 71 660 612 924 859 83 77 242 225 355 330 113 104 250
233 305 285 55 52 188 176 295 275 107 99 267 248 355 330 88 83 280 260 425
395 145 135 337 312 425 394 88 82 219 204 290 270 230 213 235 218 235 259 0
41 -9 52 -210 267 -64 69 -181 195 -260 280 -79 85 -167 180 -195 210 -29 30
-144 154 -256 275 -311 336 -340 364 -374 370 -16 2 -37 1 -45 -2z m184 -397
c157 -168 291 -313 517 -555 348 -375 399 -430 399 -439 0 -10 -147 -148
-1105 -1037 -226 -209 -480 -446 -565 -526 -85 -80 -225 -210 -310 -289 -85
-79 -191 -177 -235 -219 -44 -42 -197 -184 -340 -316 -143 -132 -335 -311
-428 -398 -117 -110 -173 -157 -184 -153 -9 4 -86 46 -172 95 -86 48 -277 155
-425 237 -147 81 -271 154 -273 162 -3 7 38 233 91 500 53 268 96 496 96 506
0 10 35 50 77 90 42 39 181 168 308 286 126 118 390 363 585 545 195 181 416
386 490 455 74 70 205 191 290 270 85 79 223 206 305 284 289 270 421 393 490
456 39 36 104 97 145 137 41 40 80 72 85 72 6 -1 77 -74 159 -163z m-6629
-1716 c33 -18 130 -72 215 -120 251 -141 452 -252 500 -278 25 -13 119 -65
210 -116 239 -134 510 -285 623 -346 53 -30 97 -58 97 -64 0 -6 -42 -225 -94
-486 -52 -261 -123 -621 -158 -798 -34 -178 -66 -329 -69 -334 -7 -11 -39 6
-399 207 -91 50 -253 140 -360 200 -107 60 -269 150 -360 201 -91 50 -185 103
-210 116 -25 14 -189 105 -365 203 -176 98 -342 190 -370 205 -73 40 -289 162
-295 167 -2 2 0 12 6 21 6 9 30 53 54 97 24 44 73 132 109 195 35 63 74 133
86 155 12 22 66 119 120 215 53 96 142 256 198 355 55 99 122 219 149 267 l49
87 102 -58 c56 -32 129 -73 162 -91z m3484 -807 c-4 -26 -51 -268 -103 -538
-53 -269 -142 -722 -197 -1005 -178 -911 -216 -1100 -222 -1106 -5 -5 -92 41
-417 219 -30 17 -104 58 -165 92 -60 34 -141 79 -180 100 -38 21 -135 75 -215
120 -80 45 -150 84 -155 86 -6 2 -81 44 -168 92 -104 59 -157 95 -157 105 0
10 36 199 80 422 44 223 118 598 165 834 47 236 86 430 87 432 3 2 802 101
1058 130 80 9 244 29 365 43 121 15 223 26 226 25 3 -2 3 -25 -2 -51z m161
-1221 c36 -19 115 -63 175 -97 61 -34 178 -100 260 -145 83 -46 152 -85 155
-87 3 -3 -18 -26 -46 -52 -28 -25 -176 -163 -329 -306 -243 -227 -443 -413
-619 -577 -28 -26 -52 -45 -53 -44 -2 1 15 92 37 202 22 109 49 246 59 304 27
148 170 872 176 888 4 11 19 6 62 -18 31 -18 87 -48 123 -68z"/>
</g>
</svg>
